<svg width="600" height="500" viewBox="0 0 40 30" fill="none" xmlns="http://www.w3.org/2000/svg">
<path d="M2.14966 13C1.04509 13 0.149658 13.8954 0.149658 15C0.149658 16.1046 1.04509 17 2.14966 17L2.14966 13ZM38.8423 16.4142C39.6234 15.6332 39.6234 14.3668 38.8423 13.5858L26.1144 0.857864C25.3334 0.0768156 24.067 0.0768156 23.286 0.857864C22.5049 1.63891 22.5049 2.90524 23.286 3.68629L34.5997 15L23.286 26.3137C22.5049 27.0948 22.5049 28.3611 23.286 29.1421C24.067 29.9232 25.3334 29.9232 26.1144 29.1421L38.8423 16.4142ZM2.14966 17H37.4281L37.4281 13L2.14966 13L2.14966 17Z" fill="#7B8B28"/>
</svg>
