<svg width="42" height="43" viewBox="0 0 42 43" fill="none" xmlns="http://www.w3.org/2000/svg">
<path d="M30.6836 33C19.4866 33.0157 10.9882 24.4162 11 13.3164C11 12.5906 11.588 12 12.3125 12H15.7775C16.4272 12 16.9798 12.4777 17.0756 13.1209C17.3041 14.6631 17.7527 16.1646 18.4078 17.5794L18.5429 17.8708C18.6338 18.0669 18.6533 18.2885 18.5982 18.4974C18.5431 18.7064 18.4168 18.8895 18.2411 19.0153C17.1674 19.7818 16.7579 21.324 17.594 22.5262C18.6466 24.04 19.9604 25.3542 21.4738 26.4073C22.6773 27.242 24.2195 26.8325 24.9847 25.7602C25.1103 25.584 25.2936 25.4572 25.5029 25.4019C25.7121 25.3465 25.9341 25.366 26.1305 25.457L26.4206 25.5909C27.8354 26.2472 29.3369 26.696 30.8791 26.9244C31.5222 27.0202 32 27.5728 32 28.2238V31.6875C32 31.8599 31.966 32.0307 31.9 32.1901C31.8339 32.3494 31.7371 32.4941 31.6151 32.616C31.4931 32.7379 31.3483 32.8346 31.1889 32.9004C31.0295 32.9663 30.8587 33.0001 30.6862 33H30.6836Z" fill="#7B8B28"/>
<path d="M41.5 21.5C41.5 33.1091 32.3108 42.5 21 42.5C9.68919 42.5 0.5 33.1091 0.5 21.5C0.5 9.89086 9.68919 0.5 21 0.5C32.3108 0.5 41.5 9.89086 41.5 21.5Z" stroke="#7B8B28"/>
</svg>
