<svg width="42" height="41" viewBox="0 0 42 41" fill="none" xmlns="http://www.w3.org/2000/svg">
<path d="M41.5 20.5C41.5 31.5344 32.3333 40.5 21 40.5C9.66674 40.5 0.5 31.5344 0.5 20.5C0.5 9.4656 9.66674 0.5 21 0.5C32.3333 0.5 41.5 9.4656 41.5 20.5Z" stroke="#7B8B28"/>
<path d="M21.5 10C18.9814 10.0027 16.5667 10.9142 14.7858 12.5344C13.0048 14.1547 12.003 16.3515 12 18.6429C11.997 20.5154 12.6693 22.3371 13.9138 23.8286C13.9138 23.8286 14.1729 24.1389 14.2152 24.1837L21.5 32L28.7882 24.1798C28.8262 24.1381 29.0862 23.8286 29.0862 23.8286L29.087 23.8262C30.3309 22.3354 31.0029 20.5145 31 18.6429C30.997 16.3515 29.9952 14.1547 28.2142 12.5344C26.4333 10.9142 24.0186 10.0027 21.5 10ZM21.5 21.7857C20.8168 21.7857 20.1489 21.6014 19.5808 21.256C19.0127 20.9107 18.5699 20.4199 18.3084 19.8456C18.047 19.2713 17.9785 18.6394 18.1118 18.0297C18.2451 17.4201 18.5741 16.8601 19.0573 16.4205C19.5404 15.981 20.1559 15.6817 20.8261 15.5604C21.4962 15.4391 22.1908 15.5014 22.822 15.7392C23.4532 15.9771 23.9928 16.3799 24.3723 16.8968C24.7519 17.4136 24.9545 18.0213 24.9545 18.6429C24.9534 19.4761 24.5891 20.2749 23.9415 20.864C23.2939 21.4532 22.4159 21.7847 21.5 21.7857Z" fill="#7B8B28"/>
</svg>
