<svg width="42" height="42" viewBox="0 0 42 42" fill="none" xmlns="http://www.w3.org/2000/svg">
<path d="M41.5 21C41.5 32.0344 32.3333 41 21 41C9.66674 41 0.5 32.0344 0.5 21C0.5 9.9656 9.66674 1 21 1C32.3333 1 41.5 9.9656 41.5 21Z" stroke="#232323"/>
<path d="M21.5 10.5C18.9814 10.5027 16.5667 11.4142 14.7858 13.0344C13.0048 14.6547 12.003 16.8515 12 19.1429C11.997 21.0154 12.6693 22.8371 13.9138 24.3286C13.9138 24.3286 14.1729 24.6389 14.2152 24.6837L21.5 32.5L28.7882 24.6798C28.8262 24.6381 29.0862 24.3286 29.0862 24.3286L29.087 24.3262C30.3309 22.8354 31.0029 21.0145 31 19.1429C30.997 16.8515 29.9952 14.6547 28.2142 13.0344C26.4333 11.4142 24.0186 10.5027 21.5 10.5ZM21.5 22.2857C20.8168 22.2857 20.1489 22.1014 19.5808 21.756C19.0127 21.4107 18.5699 20.9199 18.3084 20.3456C18.047 19.7713 17.9785 19.1394 18.1118 18.5297C18.2451 17.9201 18.5741 17.3601 19.0573 16.9205C19.5404 16.481 20.1559 16.1817 20.8261 16.0604C21.4962 15.9391 22.1908 16.0014 22.822 16.2392C23.4532 16.4771 23.9928 16.8799 24.3723 17.3968C24.7519 17.9136 24.9545 18.5213 24.9545 19.1429C24.9534 19.9761 24.5891 20.7749 23.9415 21.364C23.2939 21.9532 22.4159 22.2847 21.5 22.2857Z" fill="#232323"/>
</svg>
