<svg width="42" height="43" viewBox="0 0 42 43" fill="none" xmlns="http://www.w3.org/2000/svg">
<path d="M41.5 21.5C41.5 33.1091 32.3108 42.5 21 42.5C9.68919 42.5 0.5 33.1091 0.5 21.5C0.5 9.89086 9.68919 0.5 21 0.5C32.3108 0.5 41.5 9.89086 41.5 21.5Z" stroke="#7B8B28"/>
<path d="M21.5011 10.25C27.7145 10.25 32.7511 15.2866 32.7511 21.5C32.7511 27.7134 27.7145 32.75 21.5011 32.75C19.513 32.7532 17.5599 32.2271 15.8424 31.2256L10.2556 32.75L11.7766 27.161C10.7743 25.443 10.2478 23.489 10.2511 21.5C10.2511 15.2866 15.2877 10.25 21.5011 10.25ZM17.6671 16.2125L17.4421 16.2215C17.2965 16.2304 17.1541 16.2686 17.0236 16.334C16.9016 16.4031 16.7902 16.4895 16.6929 16.5905C16.5579 16.7176 16.4814 16.8279 16.3992 16.9348C15.9831 17.4758 15.7591 18.14 15.7625 18.8225C15.7647 19.3737 15.9087 19.9104 16.1337 20.4121C16.5939 21.4269 17.351 22.5012 18.35 23.4969C18.5907 23.7365 18.827 23.9773 19.0812 24.2011C20.3226 25.294 21.8018 26.0822 23.4012 26.5029L24.0402 26.6007C24.2484 26.612 24.4565 26.5963 24.6657 26.5861C24.9934 26.5692 25.3133 26.4805 25.6029 26.3263C25.7502 26.2504 25.894 26.1678 26.0337 26.0787C26.0337 26.0787 26.0821 26.0472 26.1744 25.9775C26.3262 25.865 26.4196 25.7851 26.5456 25.6535C26.639 25.5568 26.72 25.4431 26.7819 25.3138C26.8696 25.1304 26.9574 24.7805 26.9934 24.4891C27.0204 24.2664 27.0125 24.1449 27.0091 24.0695C27.0046 23.9491 26.9045 23.8243 26.7954 23.7714L26.1406 23.4778C26.1406 23.4778 25.1619 23.0514 24.5634 22.7791C24.5007 22.7518 24.4336 22.7361 24.3654 22.733C24.2884 22.7251 24.2106 22.7338 24.1373 22.7584C24.0639 22.783 23.9967 22.8231 23.9401 22.8759C23.9345 22.8736 23.8591 22.9377 23.0457 23.9233C22.9991 23.986 22.9347 24.0334 22.861 24.0594C22.7873 24.0855 22.7075 24.089 22.6317 24.0695C22.5585 24.0498 22.4866 24.025 22.4169 23.9953C22.2774 23.9368 22.229 23.9142 22.1334 23.8737C21.4877 23.592 20.8899 23.2113 20.3615 22.7454C20.2197 22.6216 20.0881 22.4866 19.9531 22.3561C19.5105 21.9323 19.1248 21.4528 18.8056 20.9296L18.7392 20.8228C18.6916 20.7509 18.653 20.6735 18.6245 20.5921C18.5817 20.4268 18.6931 20.294 18.6931 20.294C18.6931 20.294 18.9665 19.9948 19.0936 19.8327C19.2174 19.6753 19.322 19.5223 19.3895 19.4131C19.5222 19.1994 19.5639 18.98 19.4941 18.8101C19.1791 18.0406 18.8529 17.2745 18.5176 16.514C18.4512 16.3632 18.2544 16.2552 18.0755 16.2339C18.0147 16.2271 17.954 16.2204 17.8932 16.2159C17.7422 16.2084 17.5908 16.2099 17.4399 16.2204L17.666 16.2114L17.6671 16.2125Z" fill="#7B8B28"/>
</svg>
