<svg width="42" height="43" viewBox="0 0 42 43" fill="none" xmlns="http://www.w3.org/2000/svg">
<path d="M29.9 17.25L21.5 22.5625L13.1 17.25V15.125L21.5 20.4375L29.9 15.125M29.9 13H13.1C11.9345 13 11 13.9456 11 15.125V27.875C11 28.4386 11.2212 28.9791 11.6151 29.3776C12.0089 29.7761 12.543 30 13.1 30H29.9C30.457 30 30.9911 29.7761 31.3849 29.3776C31.7787 28.9791 32 28.4386 32 27.875V15.125C32 14.5614 31.7787 14.0209 31.3849 13.6224C30.9911 13.2239 30.457 13 29.9 13Z" fill="#7B8B28"/>
<path d="M41.5 21.5C41.5 33.1091 32.3108 42.5 21 42.5C9.68919 42.5 0.5 33.1091 0.5 21.5C0.5 9.89086 9.68919 0.5 21 0.5C32.3108 0.5 41.5 9.89086 41.5 21.5Z" stroke="#7B8B28"/>
</svg>
