<svg width="330" height="356" viewBox="0 0 330 356" fill="none" xmlns="http://www.w3.org/2000/svg">
<path d="M201.307 277.519C201.612 276.907 201.612 275.99 201.307 275.379C199.167 267.43 197.638 259.482 192.747 252.45C189.995 248.476 189.69 244.808 192.441 240.833C193.97 238.388 194.887 235.636 196.415 232.579C190.301 232.579 187.244 228.605 183.575 224.937C182.658 224.019 181.435 223.408 180.213 223.102C175.933 221.879 171.653 220.962 167.373 220.351C166.15 220.045 165.539 219.434 164.927 218.211C163.704 215.154 162.176 212.097 160.647 209.345H160.341C160.341 211.18 160.341 213.32 160.341 215.154C158.507 215.765 157.59 215.154 156.979 213.931C153.004 208.428 148.724 202.925 144.75 197.423C144.139 196.505 143.833 195.588 143.833 194.365C143.833 190.086 143.833 186.111 143.833 181.831C143.833 180.914 143.527 179.691 142.916 179.08C140.165 174.494 137.413 170.214 134.662 165.629C133.745 163.794 132.522 163.489 130.688 163.794C123.656 165.017 116.931 166.546 109.899 166.546C105.925 166.546 103.174 165.017 100.116 162.572C102.256 160.737 104.396 159.209 106.536 157.375C104.702 157.68 102.868 157.986 101.034 158.292C100.422 158.292 99.8108 158.903 99.5051 159.514C94.0023 168.992 90.3338 178.774 88.1938 189.474C87.2766 194.06 86.9709 198.645 86.3595 203.537C86.3595 206.9 86.3595 210.568 86.3595 213.931C86.9709 217.905 87.2766 221.574 87.888 225.548C94.0023 257.036 111.122 280.576 139.247 296.167C151.17 302.893 164.316 306.255 178.073 307.173C178.684 307.173 178.99 307.478 179.601 307.478C183.27 307.478 186.938 307.478 190.301 307.478C192.747 307.173 195.192 306.867 197.638 306.561C197.638 305.644 197.332 304.421 197.332 303.504C197.027 298.918 196.11 294.638 197.638 290.053C199.472 286.079 200.39 281.799 201.307 277.519Z" fill="#7B8B28"/>
<path d="M230.96 152.177C229.738 150.954 228.82 149.732 228.209 147.897C226.68 142.089 224.235 137.198 219.343 133.223C215.675 130.166 211.395 130.472 207.726 129.249C207.115 132 207.421 133.835 209.561 135.669C211.701 137.503 213.841 139.643 215.675 141.783C217.509 143.617 219.038 145.757 220.566 147.592C217.509 150.343 214.452 150.649 210.784 148.814C209.866 148.509 209.255 147.897 208.338 147.897C205.892 147.286 204.975 146.063 205.586 143.617C205.586 143.006 205.586 141.783 204.975 141.477C202.529 140.255 200.084 139.337 197.638 138.42C197.027 141.477 196.109 144.229 195.804 147.286C195.498 149.732 194.581 150.649 192.135 150.954C190.607 151.26 188.161 151.26 187.55 152.177C186.938 153.4 187.244 155.54 187.55 157.374C187.55 157.986 188.161 158.597 188.467 158.903C191.524 159.514 194.887 160.126 198.249 160.737C198.861 157.374 199.472 154.012 200.084 150.343C203.141 150.954 206.504 150.954 209.255 152.177C212.006 153.4 214.452 154.317 217.509 154.012C218.732 154.012 219.649 154.317 220.261 155.54C222.401 160.737 225.458 165.017 229.738 168.686C231.266 169.909 232.489 171.437 233.712 172.66C236.157 175.106 236.157 176.023 234.323 179.691C228.209 177.246 223.012 179.386 217.203 182.137C211.395 185.194 206.504 188.557 202.529 194.06C199.778 197.728 196.109 201.091 195.498 206.288C195.498 206.594 194.887 207.205 194.581 207.205C193.052 207.205 191.218 206.899 189.689 206.594C187.855 205.982 186.021 205.065 184.187 204.148C183.575 203.842 182.964 203.842 182.658 204.148C180.212 205.065 178.073 206.288 175.627 207.511C176.238 210.262 176.85 212.708 177.461 215.154C177.461 215.459 177.767 215.459 177.767 215.765C179.601 211.485 182.964 211.179 186.632 211.791C186.632 214.237 186.327 216.376 186.327 219.128C189.69 219.434 192.135 220.962 193.969 223.714C195.192 225.854 197.027 226.159 199.167 225.242C201.001 224.631 203.141 223.714 204.975 224.019C209.561 224.631 214.452 225.854 219.038 226.771C221.789 227.382 224.54 227.688 227.292 228.605C228.209 228.911 229.432 229.216 230.043 230.133C234.935 236.553 240.743 241.445 247.774 244.808C249.609 245.725 251.443 246.948 253.583 248.17C254.194 248.476 254.5 248.782 255.112 249.088C251.443 256.119 248.08 262.844 244.412 269.57C244.106 270.182 243.495 270.487 242.883 270.793C239.826 272.321 236.769 273.544 233.712 275.073C232.795 275.379 232.183 276.296 231.878 277.213C230.655 280.27 229.738 283.021 228.515 286.078C228.209 286.996 227.292 288.218 226.375 288.83C222.095 291.887 218.121 294.638 213.535 297.39C210.172 299.224 210.172 302.587 209.255 305.644C209.561 305.644 209.866 305.644 209.866 305.644C210.172 305.644 210.478 305.644 210.478 305.338C228.209 300.753 243.189 291.887 256.029 279.047C270.397 264.373 279.568 246.948 283.237 226.465C283.848 222.185 284.154 217.905 284.765 213.931C284.765 210.874 284.765 208.122 284.765 205.065C284.765 204.454 284.46 203.842 284.46 203.231C283.237 186.723 278.345 171.437 269.786 157.68C268.257 154.929 268.257 154.929 265.2 155.54C264.894 155.54 264.589 155.54 264.283 155.54C260.003 155.846 255.417 156.457 251.137 156.763C249.609 156.763 248.997 157.374 248.386 158.597C247.469 160.431 245.94 162.266 244.717 164.406C242.883 163.183 241.049 162.266 239.826 161.043C236.463 157.374 233.712 154.623 230.96 152.177Z" fill="#7B8B28"/>
<path d="M186.021 100.207C203.446 58.936 230.96 59.2417 230.96 59.2417C200.695 67.8016 189.995 105.098 189.995 105.098C230.349 111.824 242.577 54.3504 242.577 54.3504C242.577 54.3504 212.312 49.459 195.498 60.7703C178.378 71.7759 186.021 100.207 186.021 100.207Z" fill="#7B8B28"/>
<path d="M138.942 95.6209C153.616 108.766 180.213 102.652 180.213 102.652C181.435 103.569 182.964 106.321 184.187 109.378C182.658 109.378 181.13 109.378 179.601 109.378C176.238 109.684 172.875 110.295 169.818 110.601C151.476 113.658 134.967 121.301 120.905 133.835C116.93 137.198 113.568 141.172 109.899 144.84C109.899 145.146 110.205 145.146 110.205 145.452C110.816 145.146 111.428 145.146 112.039 144.84C119.07 142.7 125.796 140.866 133.133 140.255C138.33 139.949 143.527 138.726 147.807 135.669C149.03 134.752 150.253 135.058 151.476 135.363C153.921 135.975 156.673 137.198 159.424 137.198C163.704 137.503 167.678 136.892 171.958 136.586C172.57 136.586 173.487 135.975 174.098 135.363C175.321 133.529 176.544 131.695 177.767 129.86C178.073 129.249 178.99 128.943 179.601 128.943C182.047 129.249 184.798 129.86 187.244 129.555C192.135 129.249 197.027 128.638 201.918 128.026C202.529 128.026 203.446 127.415 204.058 127.109C205.892 125.275 207.726 123.441 209.561 121.606C212.924 118.243 216.898 117.632 221.483 118.855C223.318 119.466 225.458 119.161 227.598 119.161C227.598 118.855 227.598 118.855 227.598 118.549C219.955 114.881 211.701 112.435 203.141 110.906C199.472 110.295 195.804 109.989 192.135 109.378C190.607 109.378 189.078 109.378 187.55 109.378C163.093 53.7386 107.148 46.4015 107.148 46.4015C145.361 42.1216 180.824 84.921 180.824 84.921C179.295 76.9726 184.798 65.6613 184.798 65.6613C147.196 14.9134 94.3079 47.013 94.3079 47.013C111.733 54.9614 124.268 82.1697 138.942 95.6209ZM160.341 128.943C160.036 128.943 159.424 128.638 159.118 128.638C157.284 127.721 155.45 126.498 153.616 125.275C156.061 123.441 158.201 121.912 160.341 120.078H160.647C163.398 121.912 166.15 121.606 168.901 120.383C170.124 119.772 170.735 120.078 171.347 121.301C171.958 122.523 172.875 123.746 173.793 125.275C168.901 126.803 164.621 127.721 160.341 128.943ZM199.472 113.964C199.778 113.658 200.389 113.658 201.001 113.964C202.835 114.881 204.669 116.104 206.809 117.326C203.752 119.772 201.001 122.523 197.638 124.052C195.192 125.275 191.829 125.275 188.772 125.275C187.244 125.275 186.021 123.746 184.187 122.829C186.021 121.912 187.855 120.689 189.384 119.772C189.69 119.772 189.995 119.466 190.301 119.161C193.358 117.326 196.415 115.798 199.472 113.964Z" fill="#7B8B28"/>
<path d="M276.817 147.897C275.288 145.757 272.231 146.674 272.231 149.12C285.071 168.074 292.102 191.308 290.268 216.071C286.294 268.959 242.883 310.841 189.995 312.981C130.382 315.427 80.8566 267.43 80.8566 208.122C80.8566 186.111 86.3593 167.768 97.9763 150.954C97.9763 148.509 94.6135 147.592 93.3907 149.732C81.468 168.38 75.3538 190.697 76.5766 214.542C79.6337 268.959 123.045 313.592 177.461 317.567C241.66 322.458 295.465 271.404 295.465 208.428C295.16 186.111 288.434 165.323 276.817 147.897Z" fill="#7B8B28"/>
<path d="M56.3996 284.856C55.7882 284.856 55.1768 284.244 55.1768 283.633V262.539C55.1768 261.927 55.7882 261.316 56.3996 261.316C57.011 261.316 57.6225 261.927 57.6225 262.539V283.633C57.6225 284.244 57.011 284.856 56.3996 284.856Z" fill="#7B8B28"/>
<path d="M56.3996 316.344C55.7882 316.344 55.1768 315.732 55.1768 315.121V294.027C55.1768 293.416 55.7882 292.804 56.3996 292.804C57.011 292.804 57.6225 293.416 57.6225 294.027V315.121C57.6225 315.732 57.011 316.344 56.3996 316.344Z" fill="#7B8B28"/>
<path d="M35 288.83C35 288.218 35.3057 287.607 35.9171 287.607H50.5912C51.2026 287.607 51.5083 288.218 51.5083 288.83C51.5083 289.441 51.2026 290.053 50.5912 290.053H35.9171C35.3057 290.358 35 289.747 35 288.83Z" fill="#7B8B28"/>
<path d="M61.5968 288.83C61.5968 288.218 61.9025 287.607 62.5139 287.607H77.188C77.7994 287.607 78.1051 288.218 78.1051 288.83C78.1051 289.441 77.7994 290.053 77.188 290.053H62.5139C61.9025 290.358 61.5968 289.747 61.5968 288.83Z" fill="#7B8B28"/>
<path d="M256.334 96.8434C255.723 96.8434 255.111 96.232 255.111 95.6206V74.5266C255.111 73.9151 255.723 73.3037 256.334 73.3037C256.946 73.3037 257.557 73.9151 257.557 74.5266V95.6206C257.557 96.232 256.946 96.8434 256.334 96.8434Z" fill="#7B8B28"/>
<path d="M256.334 128.026C255.723 128.026 255.111 127.415 255.111 126.803V105.709C255.111 105.098 255.723 104.486 256.334 104.486C256.946 104.486 257.557 105.098 257.557 105.709V126.803C257.557 127.415 256.946 128.026 256.334 128.026Z" fill="#7B8B28"/>
<path d="M234.935 100.818C234.935 100.207 235.24 99.5952 235.852 99.5952H250.526C251.137 99.5952 251.443 100.207 251.443 100.818C251.443 101.429 251.137 102.041 250.526 102.041H235.852C235.546 102.041 234.935 101.429 234.935 100.818Z" fill="#7B8B28"/>
<path d="M261.531 100.818C261.531 100.207 261.837 99.5952 262.449 99.5952H277.123C277.734 99.5952 278.04 100.207 278.04 100.818C278.04 101.429 277.734 102.041 277.123 102.041H262.449C261.837 102.041 261.531 101.429 261.531 100.818Z" fill="#7B8B28"/>
<path d="M99.5048 99.9014C99.1991 99.9014 98.8934 99.5957 98.8934 99.29V87.3673C98.8934 87.0616 99.1991 86.7559 99.5048 86.7559C99.8106 86.7559 100.116 87.0616 100.116 87.3673V99.29C100.116 99.5957 99.8106 99.9014 99.5048 99.9014Z" fill="#7B8B28"/>
<path d="M99.5048 117.633C99.1991 117.633 98.8934 117.327 98.8934 117.021V105.099C98.8934 104.793 99.1991 104.487 99.5048 104.487C99.8106 104.487 100.116 104.793 100.116 105.099V117.021C100.116 117.327 99.8106 117.633 99.5048 117.633Z" fill="#7B8B28"/>
<path d="M87.2764 102.347C87.2764 102.041 87.5821 101.735 87.8878 101.735H96.142C96.4477 101.735 96.7534 102.041 96.7534 102.347C96.7534 102.652 96.4477 102.958 96.142 102.958H87.8878C87.5821 102.958 87.2764 102.652 87.2764 102.347Z" fill="#7B8B28"/>
<path d="M102.562 102.347C102.562 102.041 102.868 101.735 103.174 101.735H111.428C111.733 101.735 112.039 102.041 112.039 102.347C112.039 102.652 111.733 102.958 111.428 102.958H103.174C102.562 102.958 102.562 102.652 102.562 102.347Z" fill="#7B8B28"/>
<path d="M278.04 300.149C277.734 300.149 277.428 299.844 277.428 299.538V287.615C277.428 287.31 277.734 287.004 278.04 287.004C278.345 287.004 278.651 287.31 278.651 287.615V299.538C278.651 299.844 278.345 300.149 278.04 300.149Z" fill="#7B8B28"/>
<path d="M278.04 318.187C277.734 318.187 277.428 317.881 277.428 317.576V305.653C277.428 305.347 277.734 305.042 278.04 305.042C278.345 305.042 278.651 305.347 278.651 305.653V317.576C278.651 317.881 278.345 318.187 278.04 318.187Z" fill="#7B8B28"/>
<path d="M265.811 302.595C265.811 302.29 266.117 301.984 266.423 301.984H274.677C274.983 301.984 275.288 302.29 275.288 302.595C275.288 302.901 274.983 303.207 274.677 303.207H266.423C266.117 303.207 265.811 302.901 265.811 302.595Z" fill="#7B8B28"/>
<path d="M280.791 302.595C280.791 302.29 281.097 301.984 281.403 301.984H289.657C289.962 301.984 290.268 302.29 290.268 302.595C290.268 302.901 289.962 303.207 289.657 303.207H281.403C281.097 303.207 280.791 302.901 280.791 302.595Z" fill="#7B8B28"/>
</svg>
