<svg width="330" height="356" viewBox="0 0 330 356" fill="none" xmlns="http://www.w3.org/2000/svg">
<path d="M281.812 140.033C233.426 148.955 195.334 175.036 177.146 218.275C162.733 252.935 177.49 283.133 183.667 293.428C185.039 286.908 186.755 280.388 188.814 273.868L188.471 274.897C189.5 273.181 185.382 233.374 190.873 218.618C190.873 218.618 191.903 248.13 192.246 263.573L191.902 264.259C199.109 245.042 208.718 227.54 218.669 212.441C218.669 212.441 223.817 178.467 231.367 168.859C231.367 168.859 222.101 200.087 224.16 204.548V204.891C248.525 170.918 273.576 150.328 273.576 150.328C258.82 166.457 246.123 182.929 235.828 199.057C257.447 190.821 280.096 176.408 280.096 176.408C273.576 188.762 233.082 204.548 232.396 204.891C222.101 221.706 213.865 237.492 207.345 251.562C219.013 248.13 256.418 229.599 256.418 229.599C243.377 242.983 204.943 256.709 204.943 256.709C196.02 277.643 191.559 292.742 190.187 296.86C324.708 258.768 281.812 140.033 281.812 140.033Z" fill="#7B8B28"/>
<path d="M59.7832 203.518C85.8638 208.322 106.454 222.392 116.063 245.728C123.955 264.602 116.063 280.731 112.631 286.221C111.945 282.79 110.915 279.015 109.886 275.583L110.229 276.269C109.886 275.24 111.944 253.964 108.856 246.071C108.856 246.071 108.17 261.856 108.17 270.092V270.436C104.395 260.141 99.2474 250.532 93.7568 242.296C93.7568 242.296 91.0114 223.765 86.8934 218.617C86.8934 218.617 91.6977 235.433 90.6682 237.835C90.6682 237.835 90.6682 237.835 90.6682 238.178C77.6278 219.647 63.9012 208.666 63.9012 208.666C71.794 217.245 78.6575 226.167 84.1481 234.746C72.4805 230.285 60.4695 222.392 60.4695 222.392C63.9012 228.912 85.8639 237.492 86.207 237.492C91.6977 246.414 96.159 254.993 99.5906 262.543C93.4136 260.484 73.1667 250.875 73.1667 250.875C80.3733 258.082 100.963 265.288 100.963 265.288C105.768 276.613 108.17 284.849 108.856 286.908C36.7909 267.69 59.7832 203.518 59.7832 203.518Z" fill="#7B8B28"/>
<path d="M231.024 146.896C237.201 132.483 242.691 119.099 242.348 109.834C242.348 107.089 241.319 105.716 239.603 105.03C235.485 104.343 230.337 111.893 216.611 136.944C213.522 142.778 210.434 148.612 208.031 152.387C208.718 146.553 210.433 136.601 211.806 127.335C217.64 93.3619 221.758 66.9381 216.954 60.0747C215.581 58.0157 214.208 58.0157 213.179 58.3589C207.345 59.3884 202.198 76.8899 191.559 118.07C189.844 124.933 187.785 132.14 186.412 137.287C186.755 131.11 187.098 122.874 187.441 114.638C190.53 64.1928 190.53 39.4848 184.353 36.3963C183.323 35.7099 181.951 36.0531 180.921 36.3963C175.087 39.4848 169.94 70.0266 166.165 98.1663C166.165 75.5173 165.135 52.1819 162.047 47.7208C160.674 45.6618 158.959 45.6618 157.929 46.0049C152.782 47.3776 149.35 63.8496 144.202 113.609C143.859 117.727 143.516 121.158 143.173 123.904C141.457 138.317 135.623 158.907 132.878 168.515C126.701 154.102 118.122 141.405 113.661 136.601C108.513 130.767 100.963 129.394 97.5317 131.797C95.8158 133.169 94.4432 135.571 96.5022 139.003C104.395 153.073 110.229 174.349 112.631 200.773C115.376 231.658 119.838 238.865 124.985 247.444C126.358 249.846 127.73 251.905 129.103 254.993C135.28 267.691 123.269 304.409 123.269 304.753C122.926 305.782 123.612 307.155 124.642 307.498C124.985 307.498 124.985 307.498 125.328 307.498C126.358 307.498 127.044 306.812 127.387 306.125C128.074 304.409 140.084 267.691 133.221 253.278C131.848 250.189 130.476 247.787 129.103 245.385C124.299 237.149 120.181 229.942 117.435 200.087C115.033 172.977 109.199 151.357 100.963 136.944C100.277 135.571 100.62 135.228 100.62 135.228C101.993 134.199 107.14 134.542 111.258 139.346C117.779 146.896 136.996 176.065 136.309 198.028C136.309 199.057 137.339 200.087 138.369 200.087C139.398 200.087 140.428 199.057 140.428 198.028C140.771 190.478 138.712 182.585 135.966 174.692C137.339 170.231 145.918 143.121 147.977 124.247C148.32 121.502 148.664 118.07 149.007 113.952C150.723 97.8231 155.184 55.9568 159.302 50.1229C163.42 56.9863 163.077 110.863 161.704 143.464C161.704 144.494 162.39 145.523 163.763 145.523C164.792 145.523 165.822 144.837 165.822 143.807C170.283 95.7641 177.833 44.6322 182.98 40.1711C187.441 44.9754 184.696 91.6461 183.323 114.295C181.608 143.121 181.608 146.896 183.323 148.269C183.667 148.612 184.696 148.955 185.382 148.955C187.785 148.612 188.471 146.553 195.677 119.099C200.482 100.568 209.404 66.5949 213.865 62.4769C217.64 68.9971 211.806 103.657 207.688 126.649C202.884 155.475 202.541 158.564 205.286 159.936C205.972 160.279 207.345 160.623 208.718 158.907C211.12 156.161 215.581 148.269 220.385 139.003C225.876 129.051 234.455 112.922 238.23 109.491V109.834C238.573 118.07 233.082 131.797 227.249 145.18C225.876 148.269 224.503 151.7 223.131 154.789L229.308 150.671C229.651 149.641 230.337 148.269 231.024 146.896Z" fill="#7B8B28"/>
<path d="M177.146 317.793C177.146 318.822 178.176 319.509 179.205 319.509C179.205 319.509 179.206 319.509 179.549 319.509C180.578 319.509 181.608 318.479 181.265 317.107C180.921 312.645 181.264 307.155 182.294 300.978L178.519 297.889C177.147 305.439 176.46 312.302 177.146 317.793Z" fill="#7B8B28"/>
<path d="M208.031 309.9C207.002 309.9 205.972 309.214 205.972 308.184C205.972 307.155 206.659 306.125 207.688 305.782C208.375 305.782 265.683 297.889 288.676 253.964C289.362 252.934 290.391 252.591 291.421 252.934C292.45 253.621 292.793 254.65 292.45 255.68C268.429 301.321 209.061 309.557 208.031 309.9Z" fill="#7B8B28"/>
<path d="M80.7165 289.997C80.3733 289.997 80.0301 289.997 80.0301 289.997C24.4371 267.005 39.8795 203.862 40.2226 203.176C40.5658 202.146 41.5953 201.46 42.6248 201.803C43.6543 202.146 44.3407 203.176 43.9976 204.205C43.3112 206.608 29.2413 264.603 81.4026 286.222C82.4321 286.565 83.1186 287.938 82.4323 288.967C82.4323 289.311 81.746 289.997 80.7165 289.997Z" fill="#7B8B28"/>
</svg>
