<svg width="330" height="356" viewBox="0 0 330 356" fill="none" xmlns="http://www.w3.org/2000/svg">
<path d="M84.0385 243.167C84.0385 243.167 57.7738 211.885 87.2847 185.03L88.7603 188.276C88.7603 188.276 91.1211 180.603 97.0233 175.291L97.3184 179.128C97.3184 179.128 104.106 170.274 110.008 167.914L108.828 172.34L124.764 161.421L123.583 165.848L138.044 158.765L137.453 160.831L153.684 156.404L150.438 168.504L154.275 167.323C154.275 167.323 153.684 178.242 152.209 182.374L155.16 181.194C155.16 181.194 151.619 192.703 149.553 195.949L155.16 192.703C155.16 192.703 150.438 207.753 147.487 211L152.504 208.639C152.504 208.639 149.553 219.263 143.651 223.394C143.651 223.394 134.502 254.381 92.0065 248.183C92.0065 248.183 84.0385 264.414 84.0385 270.317C84.0385 270.317 80.2021 271.497 80.4972 268.251C80.4972 265.005 108.533 195.064 136.273 175.882C135.978 175.586 118.271 181.193 84.0385 243.167Z" fill="#7B8B28"/>
<path d="M194.114 167.619C194.114 167.619 231.888 151.683 248.71 187.982L245.168 188.572C245.168 188.572 251.661 193.294 255.202 200.376L251.366 199.491C251.366 199.491 257.858 208.344 258.153 215.132L254.317 212.771L259.924 231.363L256.087 229.002L258.743 244.938L256.973 243.757L256.382 260.579L245.759 253.791V257.923C245.759 257.923 235.43 254.086 232.184 251.43L232.479 254.381C232.479 254.381 222.74 247.594 220.084 244.643L221.56 250.84C221.56 250.84 208.87 241.692 206.509 237.855L207.394 243.167C207.394 243.167 198.246 236.97 195.885 230.477C195.885 230.477 169.03 212.476 187.917 173.816C187.917 173.816 174.932 161.422 169.325 159.651C169.325 159.651 169.325 155.815 172.276 156.995C175.227 158.176 233.659 205.688 243.988 237.855C243.103 237.265 243.398 218.968 194.114 167.619Z" fill="#7B8B28"/>
<path d="M208.575 291.565C208.575 291.565 194.41 329.929 156.34 317.534L158.406 314.583C158.406 314.583 150.438 316.059 143.061 313.698L146.012 311.632C146.012 311.632 135.093 310.157 129.781 306.025L134.207 304.845L116.796 296.287L121.222 295.106L107.942 285.958L110.008 285.367L98.2038 273.268L110.303 270.022L107.352 267.366C107.352 267.366 117.386 262.349 121.518 261.759L119.157 259.988C119.157 259.988 130.961 257.627 134.797 257.627L129.19 254.381C129.19 254.381 144.536 251.135 148.963 252.02L144.536 248.774C144.536 248.774 155.16 246.118 161.652 249.069C161.652 249.069 193.229 241.691 208.575 282.121C208.575 282.121 226.577 281.236 231.888 278.285C231.888 278.285 234.544 280.941 231.888 282.416C228.937 283.892 154.275 294.221 123.878 279.465C123.878 279.76 137.453 292.45 208.575 291.565Z" fill="#7B8B28"/>
<path d="M138.929 313.108C127.715 312.223 122.108 306.026 122.108 306.026H79.0216C71.6439 306.026 65.1515 302.189 61.6102 295.697C58.0689 289.204 58.0689 281.532 62.2005 275.334L79.6119 247.299C76.6608 243.167 74.0048 236.085 72.5293 231.953L50.1009 267.661C43.6085 278.285 43.3135 291.27 49.2157 302.189C55.413 313.108 66.627 319.896 79.0216 319.896H146.307C140.109 317.83 135.388 315.174 135.388 315.174L138.929 313.108Z" fill="#7B8B28"/>
<path d="M127.715 156.405L138.044 152.569L147.487 137.223C151.028 131.321 157.521 127.78 164.603 127.78C171.686 127.78 177.883 131.321 181.72 137.223L196.475 161.127C201.492 159.946 207.394 159.946 212.411 159.946L193.819 129.845C187.622 119.812 176.703 113.614 164.603 113.614C152.799 113.614 141.88 119.812 135.388 129.845L119.157 156.11L128.895 152.864L127.715 156.405Z" fill="#7B8B28"/>
<path d="M279.106 267.661L261.4 239.036C261.695 245.233 261.4 249.66 261.4 249.66L260.514 248.184L259.334 262.349L267.302 275.039C271.138 281.236 271.433 288.909 267.892 295.402C264.351 301.894 257.858 305.73 250.48 305.73H205.329C200.902 313.108 195.59 317.535 190.278 319.896H250.48C263.17 319.896 274.384 313.403 280.287 302.189C285.894 291.565 285.599 278.58 279.106 267.661Z" fill="#7B8B28"/>
<path d="M163.423 99.1534C162.538 99.1534 161.948 98.5632 161.948 97.6779V37.4755C161.948 36.5902 162.538 36 163.423 36C164.308 36 164.899 36.5902 164.899 37.4755V97.6779C164.899 98.5632 164.308 99.1534 163.423 99.1534Z" fill="#7B8B28"/>
<path d="M140.405 105.646C140.11 105.646 139.519 105.351 139.224 105.056L103.516 56.3626C102.926 55.7724 103.221 54.887 103.811 54.2968C104.401 53.7066 105.287 54.0017 105.877 54.5919L141.585 103.285C142.175 103.875 141.88 104.761 141.29 105.351C140.7 105.646 140.405 105.646 140.405 105.646Z" fill="#7B8B28"/>
<path d="M187.917 105.646C187.622 105.646 187.327 105.646 187.032 105.351C186.442 104.761 186.147 103.875 186.737 103.285L222.445 54.5919C223.035 54.0017 223.921 53.7066 224.511 54.2968C225.101 54.887 225.396 55.7724 224.806 56.3626L189.098 105.056C188.803 105.351 188.508 105.646 187.917 105.646Z" fill="#7B8B28"/>
</svg>
