<svg width="58" height="58" viewBox="0 0 58 58" fill="none" xmlns="http://www.w3.org/2000/svg">
<circle cx="29" cy="29" r="29" fill="#232323"/>
<path d="M29.5 21.0889C25.4051 21.0889 22.0486 24.4645 22.0486 28.5828C22.0486 32.7011 25.4051 36.0767 29.5 36.0767C33.5949 36.0767 36.9514 32.7011 36.9514 28.5828C36.9514 24.4645 33.5949 21.0889 29.5 21.0889ZM29.5 33.4437C26.8148 33.4437 24.6667 31.2833 24.6667 28.5828C24.6667 25.8823 26.8148 23.7219 29.5 23.7219C32.1852 23.7219 34.3333 25.8823 34.3333 28.5828C34.3333 31.2833 32.1181 33.4437 29.5 33.4437ZM38.9653 20.8188C38.9653 21.764 38.1597 22.5742 37.2199 22.5742C36.2801 22.5742 35.4745 21.764 35.4745 20.8188C35.4745 19.8736 36.2801 19.0635 37.2199 19.0635C38.1597 19.0635 38.9653 19.8061 38.9653 20.8188ZM43.9329 22.5742C43.8657 21.0214 43.5972 19.9411 43.2616 18.996C42.8588 18.0508 42.3889 17.2406 41.5833 16.4305C40.7778 15.6203 39.9722 15.1477 39.0324 14.7426C38.0926 14.4051 37.0856 14.135 35.4745 14.0675C33.9306 14 33.4606 14 29.5 14C25.5393 14 25.0694 14 23.5255 14.0675C21.9815 14.135 20.9074 14.4051 19.9676 14.7426C19.0278 15.1477 18.2222 15.6203 17.4167 16.4305C16.6111 17.2406 16.1412 18.0508 15.7384 18.996C15.4028 19.9411 15.1343 21.0214 15.0671 22.5742C15 24.1269 15 24.5995 15 28.5828C15 32.5661 15 33.0387 15.0671 34.5915C15.1343 36.1443 15.4028 37.2245 15.7384 38.1697C16.1412 39.1148 16.6111 39.925 17.4167 40.7351C18.2222 41.5453 19.0278 42.0179 19.9676 42.423C20.9074 42.7605 21.9144 43.0306 23.5255 43.0981C25.0694 43.1656 25.5393 43.1656 29.5 43.1656C33.4606 43.1656 33.9306 43.1656 35.4745 43.0981C37.0185 43.0306 38.0926 42.7605 39.0324 42.423C39.9722 42.0179 40.7778 41.5453 41.5833 40.7351C42.3889 39.925 42.8588 39.1148 43.2616 38.1697C43.5972 37.2245 43.8657 36.1443 43.9329 34.5915C44 33.0387 44 32.5661 44 28.5828C44 24.5995 44 24.1269 43.9329 22.5742ZM41.3148 34.524C41.2477 35.9417 41.0463 36.7519 40.8449 37.2245C40.5764 37.8996 40.2407 38.3722 39.7708 38.9123C39.2338 39.4524 38.7639 39.7225 38.0926 39.9925C37.5556 40.195 36.8171 40.3976 35.4074 40.4651C33.8634 40.5326 33.3935 40.5326 29.5671 40.5326C25.6736 40.5326 25.2037 40.5326 23.7269 40.4651C22.3171 40.3976 21.5116 40.195 21.0417 39.9925C20.3704 39.7225 19.9005 39.3849 19.3634 38.9123C18.8264 38.3722 18.5579 37.8996 18.2893 37.2245C18.088 36.6844 17.8866 35.9417 17.8194 34.524C17.7523 32.9712 17.7523 32.4986 17.7523 28.6503C17.7523 24.7346 17.7523 24.262 17.8194 22.7767C17.8866 21.3589 18.088 20.5488 18.2893 20.0762C18.5579 19.401 18.8935 18.9284 19.3634 18.3883C19.9005 17.8482 20.3704 17.5782 21.0417 17.3081C21.5787 17.1056 22.3171 16.9031 23.7269 16.8355C25.2708 16.768 25.7407 16.768 29.5671 16.768C33.4606 16.768 33.9306 16.768 35.4074 16.8355C36.8171 16.9031 37.6227 17.1056 38.0926 17.3081C38.7639 17.5782 39.2338 17.9158 39.7708 18.3883C40.3079 18.9284 40.5764 19.401 40.8449 20.0762C41.0463 20.6163 41.2477 21.3589 41.3148 22.7767C41.3819 24.3295 41.3819 24.8021 41.3819 28.6503C41.3819 32.4986 41.3819 32.9712 41.3148 34.524Z" fill="#F4F1D4"/>
</svg>
